<?xml version="1.0" encoding="utf-8"?>
<!-- Generator: Adobe Illustrator 26.5.0, SVG Export Plug-In . SVG Version: 6.00 Build 0)  -->
<svg version="1.1" id="Laag_1" xmlns="http://www.w3.org/2000/svg" xmlns:xlink="http://www.w3.org/1999/xlink" x="0px" y="0px"
	 viewBox="0 0 955.46 1195.67" style="enable-background:new 0 0 955.46 1195.67;" xml:space="preserve">
<g>
	<path d="M171.15,233.13v729.45h614.98V233.13H171.15z M763.73,940.18H193.55V609.05h570.18V940.18z M763.73,586.65H193.55V255.53
		h570.18V586.65z"/>
	<path d="M326.04,475.98c21.46,0,40.04-12.08,49.24-29.76l-20.55-10.64c-5.23,10.28-15.87,17.13-28.68,17.13
		c-18.21,0-32.1-14.06-32.1-32.28s13.89-32.28,32.1-32.28c12.81,0,23.45,6.85,28.68,17.13l20.55-10.64
		c-9.19-17.67-27.77-29.75-49.24-29.75c-30.65,0-55.53,24.89-55.53,55.54S295.39,475.98,326.04,475.98z"/>
	<path d="M425.94,432.7h9.56l26.69,41.84h26.69L458.58,430c12.81-3.79,21.82-15.69,21.82-30.48c0-18.39-13.71-33.18-32.28-33.18
		h-45.99v108.2h23.8V432.7z M425.94,387.44h18.58c7.57,0,13.16,5.41,13.16,12.8c0,7.57-5.59,12.8-13.16,12.8h-18.58V387.44z"/>
	<polygon points="576.15,453.62 534.85,453.62 534.85,430.9 570.21,430.9 570.21,409.98 534.85,409.98 534.85,387.26 576.15,387.26 
		576.15,366.34 511.05,366.34 511.05,474.54 576.15,474.54 	"/>
	<path d="M604.8,441.79c0,20.41,17.01,35.91,40.25,35.91c23.25,0,40.26-15.5,40.26-35.91c0-12.47-6.24-22.68-16.44-28.73
		c5.86-5.29,9.44-12.85,9.44-21.55c0-17.2-13.99-30.24-33.27-30.24c-19.46,0-33.45,13.04-33.45,30.24c0,8.7,3.59,16.26,9.64,21.55
		C611.03,419.11,604.8,429.32,604.8,441.79z M645.05,380.56c7.37,0,13.04,5.67,13.04,13.04c0,7.56-5.67,13.23-13.04,13.23
		c-7.37,0-13.04-5.67-13.04-13.23C632.01,386.22,637.68,380.56,645.05,380.56z M645.05,424.02c9.07,0,15.88,6.62,15.88,15.88
		c0,9.26-6.81,16.63-15.88,16.63c-9.07,0-15.87-7.37-15.87-16.63C629.17,430.64,635.98,424.02,645.05,424.02z"/>
</g>
</svg>
